<mxfile host="app.diagrams.net" modified="2023-06-13T02:09:11.850Z" agent="Mozilla/5.0 (Windows NT 10.0; Win64; x64) AppleWebKit/537.36 (KHTML, like Gecko) Chrome/114.0.0.0 Safari/537.36" etag="CmPhs7fHmkINvgRFOVEs" version="21.3.8" type="google">
  <diagram id="prtHgNgQTEPvFCAcTncT" name="Page-1">
    <mxGraphModel dx="2261" dy="796" grid="1" gridSize="10" guides="1" tooltips="1" connect="1" arrows="1" fold="1" page="1" pageScale="1" pageWidth="827" pageHeight="1169" math="0" shadow="0">
      <root>
        <mxCell id="0" />
        <mxCell id="1" parent="0" />
        <mxCell id="2VRe68uSkE31GGYO73mU-1" value="" style="whiteSpace=wrap;html=1;aspect=fixed;" parent="1" vertex="1">
          <mxGeometry x="54" y="60" width="720" height="720" as="geometry" />
        </mxCell>
        <mxCell id="2VRe68uSkE31GGYO73mU-2" value="" style="rounded=0;whiteSpace=wrap;html=1;" parent="1" vertex="1">
          <mxGeometry x="65" y="50" width="130" height="40" as="geometry" />
        </mxCell>
        <mxCell id="2VRe68uSkE31GGYO73mU-3" value="&lt;font style=&quot;font-size: 11px;&quot;&gt;Cadastrar Cliente&lt;/font&gt;" style="text;strokeColor=none;fillColor=none;html=1;fontSize=24;fontStyle=1;verticalAlign=middle;align=center;" parent="1" vertex="1">
          <mxGeometry x="74" y="50" width="100" height="40" as="geometry" />
        </mxCell>
        <mxCell id="2VRe68uSkE31GGYO73mU-4" value="" style="shape=waypoint;sketch=0;fillStyle=solid;size=6;pointerEvents=1;points=[];fillColor=none;resizable=0;rotatable=0;perimeter=centerPerimeter;snapToPoint=1;" parent="1" vertex="1">
          <mxGeometry x="205" y="140" width="20" height="20" as="geometry" />
        </mxCell>
        <mxCell id="2VRe68uSkE31GGYO73mU-9" style="edgeStyle=orthogonalEdgeStyle;rounded=0;orthogonalLoop=1;jettySize=auto;html=1;startArrow=open;startFill=0;endArrow=none;endFill=0;" parent="1" source="2VRe68uSkE31GGYO73mU-8" target="2VRe68uSkE31GGYO73mU-4" edge="1">
          <mxGeometry relative="1" as="geometry" />
        </mxCell>
        <mxCell id="2VRe68uSkE31GGYO73mU-8" value="" style="rounded=1;whiteSpace=wrap;html=1;" parent="1" vertex="1">
          <mxGeometry x="330" y="120" width="130" height="60" as="geometry" />
        </mxCell>
        <mxCell id="2VRe68uSkE31GGYO73mU-10" value="&amp;lt;&amp;lt;message&amp;gt;&amp;gt;" style="text;html=1;strokeColor=none;fillColor=none;align=center;verticalAlign=middle;whiteSpace=wrap;rounded=0;" parent="1" vertex="1">
          <mxGeometry x="365" y="120" width="60" height="30" as="geometry" />
        </mxCell>
        <mxCell id="2VRe68uSkE31GGYO73mU-11" value="&lt;font style=&quot;font-size: 11px;&quot;&gt;&lt;br&gt;this.cadastrarCliente()&lt;/font&gt;" style="text;html=1;strokeColor=none;fillColor=none;align=center;verticalAlign=middle;whiteSpace=wrap;rounded=0;" parent="1" vertex="1">
          <mxGeometry x="334" y="140" width="120" height="30" as="geometry" />
        </mxCell>
        <mxCell id="2VRe68uSkE31GGYO73mU-15" style="edgeStyle=orthogonalEdgeStyle;rounded=0;orthogonalLoop=1;jettySize=auto;html=1;endArrow=open;endFill=0;exitX=0.5;exitY=1;exitDx=0;exitDy=0;" parent="1" source="2VRe68uSkE31GGYO73mU-8" target="2VRe68uSkE31GGYO73mU-14" edge="1">
          <mxGeometry relative="1" as="geometry">
            <mxPoint x="395" y="230" as="sourcePoint" />
          </mxGeometry>
        </mxCell>
        <mxCell id="2VRe68uSkE31GGYO73mU-14" value="" style="rounded=1;whiteSpace=wrap;html=1;" parent="1" vertex="1">
          <mxGeometry x="315" y="270" width="160" height="60" as="geometry" />
        </mxCell>
        <mxCell id="2VRe68uSkE31GGYO73mU-17" style="edgeStyle=orthogonalEdgeStyle;rounded=0;orthogonalLoop=1;jettySize=auto;html=1;entryX=0.5;entryY=1;entryDx=0;entryDy=0;startArrow=open;startFill=0;endArrow=none;endFill=0;" parent="1" source="2VRe68uSkE31GGYO73mU-16" target="2VRe68uSkE31GGYO73mU-14" edge="1">
          <mxGeometry relative="1" as="geometry" />
        </mxCell>
        <mxCell id="2VRe68uSkE31GGYO73mU-20" style="edgeStyle=orthogonalEdgeStyle;rounded=0;orthogonalLoop=1;jettySize=auto;html=1;endArrow=open;endFill=0;entryX=0.5;entryY=0;entryDx=0;entryDy=0;" parent="1" source="2VRe68uSkE31GGYO73mU-16" target="2VRe68uSkE31GGYO73mU-27" edge="1">
          <mxGeometry relative="1" as="geometry">
            <mxPoint x="300" y="450" as="targetPoint" />
          </mxGeometry>
        </mxCell>
        <mxCell id="2VRe68uSkE31GGYO73mU-21" style="edgeStyle=orthogonalEdgeStyle;rounded=0;orthogonalLoop=1;jettySize=auto;html=1;endArrow=open;endFill=0;entryX=1;entryY=0.5;entryDx=0;entryDy=0;" parent="1" source="2VRe68uSkE31GGYO73mU-16" target="2VRe68uSkE31GGYO73mU-27" edge="1">
          <mxGeometry relative="1" as="geometry">
            <mxPoint x="505" y="450" as="targetPoint" />
            <Array as="points">
              <mxPoint x="490" y="375" />
              <mxPoint x="490" y="485" />
            </Array>
          </mxGeometry>
        </mxCell>
        <mxCell id="2VRe68uSkE31GGYO73mU-16" value="" style="strokeWidth=2;html=1;shape=mxgraph.flowchart.decision;whiteSpace=wrap;" parent="1" vertex="1">
          <mxGeometry x="382.5" y="370" width="25" height="10" as="geometry" />
        </mxCell>
        <mxCell id="2VRe68uSkE31GGYO73mU-27" value="" style="ellipse;html=1;shape=endState;fillColor=#000000;strokeColor=#000000;" parent="1" vertex="1">
          <mxGeometry x="300" y="470" width="30" height="30" as="geometry" />
        </mxCell>
        <mxCell id="2VRe68uSkE31GGYO73mU-34" value="&amp;lt;&amp;lt;Cliente&amp;gt;&amp;gt;" style="text;html=1;strokeColor=none;fillColor=none;align=center;verticalAlign=middle;whiteSpace=wrap;rounded=0;" parent="1" vertex="1">
          <mxGeometry x="365" y="270" width="60" height="30" as="geometry" />
        </mxCell>
        <mxCell id="2VRe68uSkE31GGYO73mU-35" value="&lt;span style=&quot;font-size: 11px;&quot;&gt;this.confirmaDadosCliente()&lt;/span&gt;" style="text;html=1;strokeColor=none;fillColor=none;align=center;verticalAlign=middle;whiteSpace=wrap;rounded=0;" parent="1" vertex="1">
          <mxGeometry x="335" y="300" width="120" height="30" as="geometry" />
        </mxCell>
        <mxCell id="2VRe68uSkE31GGYO73mU-36" value="&lt;span style=&quot;font-size: 11px;&quot;&gt;[DADOS VÁLIDOS]&lt;/span&gt;" style="text;html=1;strokeColor=none;fillColor=none;align=center;verticalAlign=middle;whiteSpace=wrap;rounded=0;" parent="1" vertex="1">
          <mxGeometry x="195" y="395" width="120" height="30" as="geometry" />
        </mxCell>
        <mxCell id="2VRe68uSkE31GGYO73mU-38" value="&lt;span style=&quot;font-size: 11px;&quot;&gt;[NOT DADOS VÁLIDOS]&lt;/span&gt;" style="text;html=1;strokeColor=none;fillColor=none;align=center;verticalAlign=middle;whiteSpace=wrap;rounded=0;" parent="1" vertex="1">
          <mxGeometry x="477" y="395" width="120" height="30" as="geometry" />
        </mxCell>
        <mxCell id="e-qMxA1oYzpZb0aV7yym-35" value="" style="whiteSpace=wrap;html=1;aspect=fixed;" parent="1" vertex="1">
          <mxGeometry x="-10" y="1178" width="1160" height="1160" as="geometry" />
        </mxCell>
        <mxCell id="e-qMxA1oYzpZb0aV7yym-36" value="" style="rounded=0;whiteSpace=wrap;html=1;" parent="1" vertex="1">
          <mxGeometry x="39" y="1300" width="130" height="40" as="geometry" />
        </mxCell>
        <mxCell id="e-qMxA1oYzpZb0aV7yym-37" value="&lt;font style=&quot;font-size: 11px;&quot;&gt;Realizar Pedido&lt;/font&gt;" style="text;strokeColor=none;fillColor=none;html=1;fontSize=24;fontStyle=1;verticalAlign=middle;align=center;" parent="1" vertex="1">
          <mxGeometry x="54" y="1300" width="100" height="40" as="geometry" />
        </mxCell>
        <mxCell id="e-qMxA1oYzpZb0aV7yym-38" value="" style="shape=waypoint;sketch=0;fillStyle=solid;size=6;pointerEvents=1;points=[];fillColor=none;resizable=0;rotatable=0;perimeter=centerPerimeter;snapToPoint=1;" parent="1" vertex="1">
          <mxGeometry x="199" y="1290" width="20" height="20" as="geometry" />
        </mxCell>
        <mxCell id="e-qMxA1oYzpZb0aV7yym-39" style="edgeStyle=orthogonalEdgeStyle;rounded=0;orthogonalLoop=1;jettySize=auto;html=1;startArrow=open;startFill=0;endArrow=none;endFill=0;" parent="1" source="e-qMxA1oYzpZb0aV7yym-40" target="e-qMxA1oYzpZb0aV7yym-38" edge="1">
          <mxGeometry relative="1" as="geometry" />
        </mxCell>
        <mxCell id="e-qMxA1oYzpZb0aV7yym-40" value="" style="rounded=1;whiteSpace=wrap;html=1;" parent="1" vertex="1">
          <mxGeometry x="325" y="1270" width="130" height="60" as="geometry" />
        </mxCell>
        <mxCell id="e-qMxA1oYzpZb0aV7yym-41" value="&amp;lt;&amp;lt;message&amp;gt;&amp;gt;" style="text;html=1;strokeColor=none;fillColor=none;align=center;verticalAlign=middle;whiteSpace=wrap;rounded=0;" parent="1" vertex="1">
          <mxGeometry x="359" y="1270" width="60" height="30" as="geometry" />
        </mxCell>
        <mxCell id="e-qMxA1oYzpZb0aV7yym-42" value="&lt;span style=&quot;font-size: 11px;&quot;&gt;this.solicitarServico()&lt;/span&gt;" style="text;html=1;strokeColor=none;fillColor=none;align=center;verticalAlign=middle;whiteSpace=wrap;rounded=0;" parent="1" vertex="1">
          <mxGeometry x="329" y="1300" width="120" height="30" as="geometry" />
        </mxCell>
        <mxCell id="e-qMxA1oYzpZb0aV7yym-43" style="edgeStyle=orthogonalEdgeStyle;rounded=0;orthogonalLoop=1;jettySize=auto;html=1;entryX=0.5;entryY=1;entryDx=0;entryDy=0;startArrow=open;startFill=0;endArrow=none;endFill=0;exitX=0.5;exitY=0;exitDx=0;exitDy=0;" parent="1" source="e-qMxA1oYzpZb0aV7yym-63" target="e-qMxA1oYzpZb0aV7yym-42" edge="1">
          <mxGeometry relative="1" as="geometry">
            <mxPoint x="389" y="1370" as="sourcePoint" />
            <Array as="points">
              <mxPoint x="372" y="1330" />
            </Array>
          </mxGeometry>
        </mxCell>
        <mxCell id="e-qMxA1oYzpZb0aV7yym-47" value="" style="rounded=1;whiteSpace=wrap;html=1;" parent="1" vertex="1">
          <mxGeometry x="302" y="1420" width="173" height="60" as="geometry" />
        </mxCell>
        <mxCell id="e-qMxA1oYzpZb0aV7yym-48" style="edgeStyle=orthogonalEdgeStyle;rounded=0;orthogonalLoop=1;jettySize=auto;html=1;entryX=0.5;entryY=1;entryDx=0;entryDy=0;startArrow=open;startFill=0;endArrow=none;endFill=0;" parent="1" source="e-qMxA1oYzpZb0aV7yym-51" target="e-qMxA1oYzpZb0aV7yym-47" edge="1">
          <mxGeometry relative="1" as="geometry" />
        </mxCell>
        <mxCell id="e-qMxA1oYzpZb0aV7yym-49" style="edgeStyle=orthogonalEdgeStyle;rounded=0;orthogonalLoop=1;jettySize=auto;html=1;endArrow=open;endFill=0;" parent="1" source="e-qMxA1oYzpZb0aV7yym-51" target="e-qMxA1oYzpZb0aV7yym-53" edge="1">
          <mxGeometry relative="1" as="geometry" />
        </mxCell>
        <mxCell id="e-qMxA1oYzpZb0aV7yym-50" style="edgeStyle=orthogonalEdgeStyle;rounded=0;orthogonalLoop=1;jettySize=auto;html=1;endArrow=open;endFill=0;" parent="1" source="e-qMxA1oYzpZb0aV7yym-51" target="e-qMxA1oYzpZb0aV7yym-55" edge="1">
          <mxGeometry relative="1" as="geometry" />
        </mxCell>
        <mxCell id="e-qMxA1oYzpZb0aV7yym-51" value="" style="strokeWidth=2;html=1;shape=mxgraph.flowchart.decision;whiteSpace=wrap;" parent="1" vertex="1">
          <mxGeometry x="376.5" y="1520" width="25" height="10" as="geometry" />
        </mxCell>
        <mxCell id="e-qMxA1oYzpZb0aV7yym-53" value="&lt;br&gt;&lt;br&gt;this.realizarTreinamento()" style="rounded=1;whiteSpace=wrap;html=1;" parent="1" vertex="1">
          <mxGeometry x="200" y="1600" width="159" height="60" as="geometry" />
        </mxCell>
        <mxCell id="e-qMxA1oYzpZb0aV7yym-54" style="edgeStyle=orthogonalEdgeStyle;rounded=0;orthogonalLoop=1;jettySize=auto;html=1;entryX=1;entryY=0.5;entryDx=0;entryDy=0;entryPerimeter=0;endArrow=open;endFill=0;" parent="1" source="e-qMxA1oYzpZb0aV7yym-55" target="e-qMxA1oYzpZb0aV7yym-57" edge="1">
          <mxGeometry relative="1" as="geometry">
            <Array as="points">
              <mxPoint x="494" y="1745" />
            </Array>
          </mxGeometry>
        </mxCell>
        <mxCell id="e-qMxA1oYzpZb0aV7yym-55" value="&lt;br&gt;this.solicitarPagamento()" style="rounded=1;whiteSpace=wrap;html=1;" parent="1" vertex="1">
          <mxGeometry x="424" y="1600" width="146" height="60" as="geometry" />
        </mxCell>
        <mxCell id="z8DHyztgoasYZeZ06j0j-13" style="edgeStyle=orthogonalEdgeStyle;rounded=0;orthogonalLoop=1;jettySize=auto;html=1;exitX=0;exitY=0.5;exitDx=0;exitDy=0;exitPerimeter=0;" parent="1" source="e-qMxA1oYzpZb0aV7yym-57" target="e-qMxA1oYzpZb0aV7yym-60" edge="1">
          <mxGeometry relative="1" as="geometry">
            <Array as="points">
              <mxPoint x="130" y="1745" />
              <mxPoint x="130" y="2085" />
            </Array>
          </mxGeometry>
        </mxCell>
        <mxCell id="z8DHyztgoasYZeZ06j0j-16" style="edgeStyle=orthogonalEdgeStyle;rounded=0;orthogonalLoop=1;jettySize=auto;html=1;exitX=0.5;exitY=1;exitDx=0;exitDy=0;exitPerimeter=0;" parent="1" source="e-qMxA1oYzpZb0aV7yym-57" target="z8DHyztgoasYZeZ06j0j-10" edge="1">
          <mxGeometry relative="1" as="geometry" />
        </mxCell>
        <mxCell id="e-qMxA1oYzpZb0aV7yym-57" value="" style="strokeWidth=2;html=1;shape=mxgraph.flowchart.decision;whiteSpace=wrap;" parent="1" vertex="1">
          <mxGeometry x="376.5" y="1740" width="25" height="10" as="geometry" />
        </mxCell>
        <mxCell id="e-qMxA1oYzpZb0aV7yym-60" value="" style="ellipse;html=1;shape=endState;fillColor=#000000;strokeColor=#000000;" parent="1" vertex="1">
          <mxGeometry x="307" y="2070" width="30" height="30" as="geometry" />
        </mxCell>
        <mxCell id="e-qMxA1oYzpZb0aV7yym-61" value="&amp;lt;&amp;lt;Treinamento&amp;gt;&amp;gt;" style="text;html=1;strokeColor=none;fillColor=none;align=center;verticalAlign=middle;whiteSpace=wrap;rounded=0;" parent="1" vertex="1">
          <mxGeometry x="247" y="1600" width="60" height="30" as="geometry" />
        </mxCell>
        <mxCell id="e-qMxA1oYzpZb0aV7yym-62" value="&amp;lt;&amp;lt;message&amp;gt;&amp;gt;" style="text;html=1;strokeColor=none;fillColor=none;align=center;verticalAlign=middle;whiteSpace=wrap;rounded=0;" parent="1" vertex="1">
          <mxGeometry x="477" y="1600" width="60" height="30" as="geometry" />
        </mxCell>
        <mxCell id="e-qMxA1oYzpZb0aV7yym-63" value="&amp;lt;&amp;lt;Servicos&amp;gt;&amp;gt;" style="text;html=1;strokeColor=none;fillColor=none;align=center;verticalAlign=middle;whiteSpace=wrap;rounded=0;" parent="1" vertex="1">
          <mxGeometry x="359" y="1430" width="60" height="30" as="geometry" />
        </mxCell>
        <mxCell id="e-qMxA1oYzpZb0aV7yym-64" value="&lt;font style=&quot;font-size: 11px;&quot;&gt;this.consultarServicos()&lt;/font&gt;" style="text;html=1;strokeColor=none;fillColor=none;align=center;verticalAlign=middle;whiteSpace=wrap;rounded=0;" parent="1" vertex="1">
          <mxGeometry x="335" y="1450" width="110" height="30" as="geometry" />
        </mxCell>
        <mxCell id="e-qMxA1oYzpZb0aV7yym-65" value="[NOT LIMPADOR HABILITADO]" style="text;html=1;strokeColor=none;fillColor=none;align=center;verticalAlign=middle;whiteSpace=wrap;rounded=0;" parent="1" vertex="1">
          <mxGeometry x="174" y="1545" width="120" height="30" as="geometry" />
        </mxCell>
        <mxCell id="e-qMxA1oYzpZb0aV7yym-66" value="[ LIMPADOR HABILITADO]" style="text;html=1;strokeColor=none;fillColor=none;align=center;verticalAlign=middle;whiteSpace=wrap;rounded=0;" parent="1" vertex="1">
          <mxGeometry x="504" y="1545" width="120" height="30" as="geometry" />
        </mxCell>
        <mxCell id="z8DHyztgoasYZeZ06j0j-8" style="edgeStyle=orthogonalEdgeStyle;rounded=0;orthogonalLoop=1;jettySize=auto;html=1;endArrow=open;endFill=0;entryX=0;entryY=0.5;entryDx=0;entryDy=0;" parent="1" source="e-qMxA1oYzpZb0aV7yym-53" target="e-qMxA1oYzpZb0aV7yym-55" edge="1">
          <mxGeometry relative="1" as="geometry">
            <Array as="points">
              <mxPoint x="420" y="1630" />
              <mxPoint x="420" y="1630" />
            </Array>
            <mxPoint x="356" y="1590" as="sourcePoint" />
            <mxPoint x="449" y="1675" as="targetPoint" />
          </mxGeometry>
        </mxCell>
        <mxCell id="z8DHyztgoasYZeZ06j0j-10" value="" style="rounded=1;whiteSpace=wrap;html=1;" parent="1" vertex="1">
          <mxGeometry x="317" y="1790" width="146" height="60" as="geometry" />
        </mxCell>
        <mxCell id="z8DHyztgoasYZeZ06j0j-12" value="[NOT PAGAMENTO LIBERADO]" style="text;html=1;strokeColor=none;fillColor=none;align=center;verticalAlign=middle;whiteSpace=wrap;rounded=0;" parent="1" vertex="1">
          <mxGeometry x="256.5" y="1700" width="120" height="30" as="geometry" />
        </mxCell>
        <mxCell id="z8DHyztgoasYZeZ06j0j-15" value="[PAGAMENTO LIBERADO]" style="text;html=1;strokeColor=none;fillColor=none;align=center;verticalAlign=middle;whiteSpace=wrap;rounded=0;" parent="1" vertex="1">
          <mxGeometry x="376.5" y="1754" width="120" height="30" as="geometry" />
        </mxCell>
        <mxCell id="z8DHyztgoasYZeZ06j0j-18" value="&amp;lt;&amp;lt;Funcionario&amp;gt;&amp;gt;" style="text;html=1;strokeColor=none;fillColor=none;align=center;verticalAlign=middle;whiteSpace=wrap;rounded=0;" parent="1" vertex="1">
          <mxGeometry x="365" y="1790" width="60" height="30" as="geometry" />
        </mxCell>
        <mxCell id="z8DHyztgoasYZeZ06j0j-22" style="edgeStyle=orthogonalEdgeStyle;rounded=0;orthogonalLoop=1;jettySize=auto;html=1;exitX=0.5;exitY=1;exitDx=0;exitDy=0;entryX=0.5;entryY=0;entryDx=0;entryDy=0;entryPerimeter=0;" parent="1" source="z8DHyztgoasYZeZ06j0j-19" target="z8DHyztgoasYZeZ06j0j-20" edge="1">
          <mxGeometry relative="1" as="geometry" />
        </mxCell>
        <mxCell id="z8DHyztgoasYZeZ06j0j-19" value="&lt;span style=&quot;font-size: 11px;&quot;&gt;this.alocarFuncionario()&lt;br&gt;&lt;/span&gt;" style="text;html=1;strokeColor=none;fillColor=none;align=center;verticalAlign=middle;whiteSpace=wrap;rounded=0;" parent="1" vertex="1">
          <mxGeometry x="339" y="1820" width="110" height="30" as="geometry" />
        </mxCell>
        <mxCell id="z8DHyztgoasYZeZ06j0j-24" style="edgeStyle=orthogonalEdgeStyle;rounded=0;orthogonalLoop=1;jettySize=auto;html=1;exitX=0;exitY=0.5;exitDx=0;exitDy=0;exitPerimeter=0;" parent="1" source="z8DHyztgoasYZeZ06j0j-20" target="e-qMxA1oYzpZb0aV7yym-60" edge="1">
          <mxGeometry relative="1" as="geometry" />
        </mxCell>
        <mxCell id="z8DHyztgoasYZeZ06j0j-27" style="edgeStyle=orthogonalEdgeStyle;rounded=0;orthogonalLoop=1;jettySize=auto;html=1;exitX=1;exitY=0.5;exitDx=0;exitDy=0;exitPerimeter=0;" parent="1" source="z8DHyztgoasYZeZ06j0j-20" target="z8DHyztgoasYZeZ06j0j-26" edge="1">
          <mxGeometry relative="1" as="geometry" />
        </mxCell>
        <mxCell id="z8DHyztgoasYZeZ06j0j-20" value="" style="strokeWidth=2;html=1;shape=mxgraph.flowchart.decision;whiteSpace=wrap;" parent="1" vertex="1">
          <mxGeometry x="381.5" y="1900" width="25" height="10" as="geometry" />
        </mxCell>
        <mxCell id="z8DHyztgoasYZeZ06j0j-23" value="[NOT FUNCIONARIO LIBERADO]" style="text;html=1;strokeColor=none;fillColor=none;align=center;verticalAlign=middle;whiteSpace=wrap;rounded=0;" parent="1" vertex="1">
          <mxGeometry x="190" y="1920" width="120" height="30" as="geometry" />
        </mxCell>
        <mxCell id="z8DHyztgoasYZeZ06j0j-25" value="[FUNCIONARIO LIBERADO]&lt;br&gt;" style="text;html=1;strokeColor=none;fillColor=none;align=center;verticalAlign=middle;whiteSpace=wrap;rounded=0;" parent="1" vertex="1">
          <mxGeometry x="471" y="1920" width="120" height="30" as="geometry" />
        </mxCell>
        <mxCell id="z8DHyztgoasYZeZ06j0j-26" value="" style="rounded=1;whiteSpace=wrap;html=1;" parent="1" vertex="1">
          <mxGeometry x="406.5" y="1980" width="146" height="60" as="geometry" />
        </mxCell>
        <mxCell id="z8DHyztgoasYZeZ06j0j-28" value="&amp;lt;&amp;lt;Funcionario&amp;gt;&amp;gt;" style="text;html=1;strokeColor=none;fillColor=none;align=center;verticalAlign=middle;whiteSpace=wrap;rounded=0;" parent="1" vertex="1">
          <mxGeometry x="455" y="1980" width="60" height="30" as="geometry" />
        </mxCell>
        <mxCell id="z8DHyztgoasYZeZ06j0j-30" style="edgeStyle=orthogonalEdgeStyle;rounded=0;orthogonalLoop=1;jettySize=auto;html=1;exitX=0.5;exitY=1;exitDx=0;exitDy=0;" parent="1" source="z8DHyztgoasYZeZ06j0j-29" target="e-qMxA1oYzpZb0aV7yym-60" edge="1">
          <mxGeometry relative="1" as="geometry">
            <Array as="points">
              <mxPoint x="480" y="2080" />
            </Array>
          </mxGeometry>
        </mxCell>
        <mxCell id="z8DHyztgoasYZeZ06j0j-29" value="&lt;br&gt;this.realizarServico()" style="text;html=1;strokeColor=none;fillColor=none;align=center;verticalAlign=middle;whiteSpace=wrap;rounded=0;" parent="1" vertex="1">
          <mxGeometry x="449.5" y="2010" width="60" height="30" as="geometry" />
        </mxCell>
      </root>
    </mxGraphModel>
  </diagram>
</mxfile>
